<svg width="285" height="353" viewBox="0 0 285 353" fill="none" xmlns="http://www.w3.org/2000/svg">
<rect width="15" height="5" fill="#FFF500"/>
<rect y="12" width="15" height="5" fill="#FFF500"/>
<rect y="24" width="15" height="5" fill="#FFF500"/>
<rect y="36" width="15" height="5" fill="#FFF500"/>
<rect y="48" width="15" height="5" fill="#FFF500"/>
<rect y="60" width="15" height="5" fill="#FFF500"/>
<rect y="72" width="15" height="5" fill="#FFF500"/>
<rect y="84" width="15" height="5" fill="#FFF500"/>
<rect y="96" width="15" height="5" fill="#FFF500"/>
<rect y="108" width="15" height="5" fill="#FFF500"/>
<rect y="120" width="15" height="5" fill="#FFF500"/>
<rect y="132" width="15" height="5" fill="#FFF500"/>
<rect y="144" width="15" height="5" fill="#FFF500"/>
<rect y="156" width="15" height="5" fill="#FFF500"/>
<rect y="168" width="15" height="5" fill="#FFF500"/>
<rect y="180" width="15" height="5" fill="#FFF500"/>
<rect y="192" width="15" height="5" fill="#FFF500"/>
<rect y="204" width="15" height="5" fill="#FFF500"/>
<rect y="216" width="15" height="5" fill="#FFF500"/>
<rect y="228" width="15" height="5" fill="#FFF500"/>
<rect y="240" width="15" height="5" fill="#FFF500"/>
<rect y="252" width="15" height="5" fill="#FFF500"/>
<rect y="264" width="15" height="5" fill="#FFF500"/>
<rect y="276" width="15" height="5" fill="#FFF500"/>
<rect y="288" width="15" height="5" fill="#FFF500"/>
<rect y="300" width="15" height="5" fill="#FFF500"/>
<rect y="312" width="15" height="5" fill="#FFF500"/>
<rect y="324" width="15" height="5" fill="#FFF500"/>
<rect y="336" width="15" height="5" fill="#FFF500"/>
<rect y="348" width="15" height="5" fill="#FFF500"/>
<rect x="30" width="15" height="5" fill="#FFF500"/>
<rect x="30" y="12" width="15" height="5" fill="#FFF500"/>
<rect x="30" y="24" width="15" height="5" fill="#FFF500"/>
<rect x="30" y="36" width="15" height="5" fill="#FFF500"/>
<rect x="30" y="48" width="15" height="5" fill="#FFF500"/>
<rect x="30" y="60" width="15" height="5" fill="#FFF500"/>
<rect x="30" y="72" width="15" height="5" fill="#FFF500"/>
<rect x="30" y="84" width="15" height="5" fill="#FFF500"/>
<rect x="30" y="96" width="15" height="5" fill="#FFF500"/>
<rect x="30" y="108" width="15" height="5" fill="#FFF500"/>
<rect x="30" y="120" width="15" height="5" fill="#FFF500"/>
<rect x="30" y="132" width="15" height="5" fill="#FFF500"/>
<rect x="30" y="144" width="15" height="5" fill="#FFF500"/>
<rect x="30" y="156" width="15" height="5" fill="#FFF500"/>
<rect x="30" y="168" width="15" height="5" fill="#FFF500"/>
<rect x="30" y="180" width="15" height="5" fill="#FFF500"/>
<rect x="30" y="192" width="15" height="5" fill="#FFF500"/>
<rect x="30" y="204" width="15" height="5" fill="#FFF500"/>
<rect x="30" y="216" width="15" height="5" fill="#FFF500"/>
<rect x="30" y="228" width="15" height="5" fill="#FFF500"/>
<rect x="30" y="240" width="15" height="5" fill="#FFF500"/>
<rect x="30" y="252" width="15" height="5" fill="#FFF500"/>
<rect x="30" y="264" width="15" height="5" fill="#FFF500"/>
<rect x="30" y="276" width="15" height="5" fill="#FFF500"/>
<rect x="30" y="288" width="15" height="5" fill="#FFF500"/>
<rect x="30" y="300" width="15" height="5" fill="#FFF500"/>
<rect x="30" y="312" width="15" height="5" fill="#FFF500"/>
<rect x="30" y="324" width="15" height="5" fill="#FFF500"/>
<rect x="30" y="336" width="15" height="5" fill="#FFF500"/>
<rect x="30" y="348" width="15" height="5" fill="#FFF500"/>
<rect x="60" width="15" height="5" fill="#FFF500"/>
<rect x="60" y="12" width="15" height="5" fill="#FFF500"/>
<rect x="60" y="24" width="15" height="5" fill="#FFF500"/>
<rect x="60" y="36" width="15" height="5" fill="#FFF500"/>
<rect x="60" y="48" width="15" height="5" fill="#FFF500"/>
<rect x="60" y="60" width="15" height="5" fill="#FFF500"/>
<rect x="60" y="72" width="15" height="5" fill="#FFF500"/>
<rect x="60" y="84" width="15" height="5" fill="#FFF500"/>
<rect x="60" y="96" width="15" height="5" fill="#FFF500"/>
<rect x="60" y="108" width="15" height="5" fill="#FFF500"/>
<rect x="60" y="120" width="15" height="5" fill="#FFF500"/>
<rect x="60" y="132" width="15" height="5" fill="#FFF500"/>
<rect x="60" y="144" width="15" height="5" fill="#FFF500"/>
<rect x="60" y="156" width="15" height="5" fill="#FFF500"/>
<rect x="60" y="168" width="15" height="5" fill="#FFF500"/>
<rect x="60" y="180" width="15" height="5" fill="#FFF500"/>
<rect x="60" y="192" width="15" height="5" fill="#FFF500"/>
<rect x="60" y="204" width="15" height="5" fill="#FFF500"/>
<rect x="60" y="216" width="15" height="5" fill="#FFF500"/>
<rect x="60" y="228" width="15" height="5" fill="#FFF500"/>
<rect x="60" y="240" width="15" height="5" fill="#FFF500"/>
<rect x="60" y="252" width="15" height="5" fill="#FFF500"/>
<rect x="60" y="264" width="15" height="5" fill="#FFF500"/>
<rect x="60" y="276" width="15" height="5" fill="#FFF500"/>
<rect x="60" y="288" width="15" height="5" fill="#FFF500"/>
<rect x="60" y="300" width="15" height="5" fill="#FFF500"/>
<rect x="60" y="312" width="15" height="5" fill="#FFF500"/>
<rect x="60" y="324" width="15" height="5" fill="#FFF500"/>
<rect x="60" y="336" width="15" height="5" fill="#FFF500"/>
<rect x="60" y="348" width="15" height="5" fill="#FFF500"/>
<rect x="90" width="15" height="5" fill="#FFF500"/>
<rect x="90" y="12" width="15" height="5" fill="#FFF500"/>
<rect x="90" y="24" width="15" height="5" fill="#FFF500"/>
<rect x="90" y="36" width="15" height="5" fill="#FFF500"/>
<rect x="90" y="48" width="15" height="5" fill="#FFF500"/>
<rect x="90" y="60" width="15" height="5" fill="#FFF500"/>
<rect x="90" y="72" width="15" height="5" fill="#FFF500"/>
<rect x="90" y="84" width="15" height="5" fill="#FFF500"/>
<rect x="90" y="96" width="15" height="5" fill="#FFF500"/>
<rect x="90" y="108" width="15" height="5" fill="#FFF500"/>
<rect x="90" y="120" width="15" height="5" fill="#FFF500"/>
<rect x="90" y="132" width="15" height="5" fill="#FFF500"/>
<rect x="90" y="144" width="15" height="5" fill="#FFF500"/>
<rect x="90" y="156" width="15" height="5" fill="#FFF500"/>
<rect x="90" y="168" width="15" height="5" fill="#FFF500"/>
<rect x="90" y="180" width="15" height="5" fill="#FFF500"/>
<rect x="90" y="192" width="15" height="5" fill="#FFF500"/>
<rect x="90" y="204" width="15" height="5" fill="#FFF500"/>
<rect x="90" y="216" width="15" height="5" fill="#FFF500"/>
<rect x="90" y="228" width="15" height="5" fill="#FFF500"/>
<rect x="90" y="240" width="15" height="5" fill="#FFF500"/>
<rect x="90" y="252" width="15" height="5" fill="#FFF500"/>
<rect x="90" y="264" width="15" height="5" fill="#FFF500"/>
<rect x="90" y="276" width="15" height="5" fill="#FFF500"/>
<rect x="90" y="288" width="15" height="5" fill="#FFF500"/>
<rect x="90" y="300" width="15" height="5" fill="#FFF500"/>
<rect x="90" y="312" width="15" height="5" fill="#FFF500"/>
<rect x="90" y="324" width="15" height="5" fill="#FFF500"/>
<rect x="90" y="336" width="15" height="5" fill="#FFF500"/>
<rect x="90" y="348" width="15" height="5" fill="#FFF500"/>
<rect x="120" width="15" height="5" fill="#FFF500"/>
<rect x="120" y="12" width="15" height="5" fill="#FFF500"/>
<rect x="120" y="24" width="15" height="5" fill="#FFF500"/>
<rect x="120" y="36" width="15" height="5" fill="#FFF500"/>
<rect x="120" y="48" width="15" height="5" fill="#FFF500"/>
<rect x="120" y="60" width="15" height="5" fill="#FFF500"/>
<rect x="120" y="72" width="15" height="5" fill="#FFF500"/>
<rect x="120" y="84" width="15" height="5" fill="#FFF500"/>
<rect x="120" y="96" width="15" height="5" fill="#FFF500"/>
<rect x="120" y="108" width="15" height="5" fill="#FFF500"/>
<rect x="120" y="120" width="15" height="5" fill="#FFF500"/>
<rect x="120" y="132" width="15" height="5" fill="#FFF500"/>
<rect x="120" y="144" width="15" height="5" fill="#FFF500"/>
<rect x="120" y="156" width="15" height="5" fill="#FFF500"/>
<rect x="120" y="168" width="15" height="5" fill="#FFF500"/>
<rect x="120" y="180" width="15" height="5" fill="#FFF500"/>
<rect x="120" y="192" width="15" height="5" fill="#FFF500"/>
<rect x="120" y="204" width="15" height="5" fill="#FFF500"/>
<rect x="120" y="216" width="15" height="5" fill="#FFF500"/>
<rect x="120" y="228" width="15" height="5" fill="#FFF500"/>
<rect x="120" y="240" width="15" height="5" fill="#FFF500"/>
<rect x="120" y="252" width="15" height="5" fill="#FFF500"/>
<rect x="120" y="264" width="15" height="5" fill="#FFF500"/>
<rect x="120" y="276" width="15" height="5" fill="#FFF500"/>
<rect x="120" y="288" width="15" height="5" fill="#FFF500"/>
<rect x="120" y="300" width="15" height="5" fill="#FFF500"/>
<rect x="120" y="312" width="15" height="5" fill="#FFF500"/>
<rect x="120" y="324" width="15" height="5" fill="#FFF500"/>
<rect x="120" y="336" width="15" height="5" fill="#FFF500"/>
<rect x="120" y="348" width="15" height="5" fill="#FFF500"/>
<rect x="150" width="15" height="5" fill="#FFF500"/>
<rect x="150" y="12" width="15" height="5" fill="#FFF500"/>
<rect x="150" y="24" width="15" height="5" fill="#FFF500"/>
<rect x="150" y="36" width="15" height="5" fill="#FFF500"/>
<rect x="150" y="48" width="15" height="5" fill="#FFF500"/>
<rect x="150" y="60" width="15" height="5" fill="#FFF500"/>
<rect x="150" y="72" width="15" height="5" fill="#FFF500"/>
<rect x="150" y="84" width="15" height="5" fill="#FFF500"/>
<rect x="150" y="96" width="15" height="5" fill="#FFF500"/>
<rect x="150" y="108" width="15" height="5" fill="#FFF500"/>
<rect x="150" y="120" width="15" height="5" fill="#FFF500"/>
<rect x="150" y="132" width="15" height="5" fill="#FFF500"/>
<rect x="150" y="144" width="15" height="5" fill="#FFF500"/>
<rect x="150" y="156" width="15" height="5" fill="#FFF500"/>
<rect x="150" y="168" width="15" height="5" fill="#FFF500"/>
<rect x="150" y="180" width="15" height="5" fill="#FFF500"/>
<rect x="150" y="192" width="15" height="5" fill="#FFF500"/>
<rect x="150" y="204" width="15" height="5" fill="#FFF500"/>
<rect x="150" y="216" width="15" height="5" fill="#FFF500"/>
<rect x="150" y="228" width="15" height="5" fill="#FFF500"/>
<rect x="150" y="240" width="15" height="5" fill="#FFF500"/>
<rect x="150" y="252" width="15" height="5" fill="#FFF500"/>
<rect x="150" y="264" width="15" height="5" fill="#FFF500"/>
<rect x="150" y="276" width="15" height="5" fill="#FFF500"/>
<rect x="150" y="288" width="15" height="5" fill="#FFF500"/>
<rect x="150" y="300" width="15" height="5" fill="#FFF500"/>
<rect x="150" y="312" width="15" height="5" fill="#FFF500"/>
<rect x="150" y="324" width="15" height="5" fill="#FFF500"/>
<rect x="150" y="336" width="15" height="5" fill="#FFF500"/>
<rect x="150" y="348" width="15" height="5" fill="#FFF500"/>
<rect x="180" width="15" height="5" fill="#FFF500"/>
<rect x="180" y="12" width="15" height="5" fill="#FFF500"/>
<rect x="180" y="24" width="15" height="5" fill="#FFF500"/>
<rect x="180" y="36" width="15" height="5" fill="#FFF500"/>
<rect x="180" y="48" width="15" height="5" fill="#FFF500"/>
<rect x="180" y="60" width="15" height="5" fill="#FFF500"/>
<rect x="180" y="72" width="15" height="5" fill="#FFF500"/>
<rect x="180" y="84" width="15" height="5" fill="#FFF500"/>
<rect x="180" y="96" width="15" height="5" fill="#FFF500"/>
<rect x="180" y="108" width="15" height="5" fill="#FFF500"/>
<rect x="180" y="120" width="15" height="5" fill="#FFF500"/>
<rect x="180" y="132" width="15" height="5" fill="#FFF500"/>
<rect x="180" y="144" width="15" height="5" fill="#FFF500"/>
<rect x="180" y="156" width="15" height="5" fill="#FFF500"/>
<rect x="180" y="168" width="15" height="5" fill="#FFF500"/>
<rect x="180" y="180" width="15" height="5" fill="#FFF500"/>
<rect x="180" y="192" width="15" height="5" fill="#FFF500"/>
<rect x="180" y="204" width="15" height="5" fill="#FFF500"/>
<rect x="180" y="216" width="15" height="5" fill="#FFF500"/>
<rect x="180" y="228" width="15" height="5" fill="#FFF500"/>
<rect x="180" y="240" width="15" height="5" fill="#FFF500"/>
<rect x="180" y="252" width="15" height="5" fill="#FFF500"/>
<rect x="180" y="264" width="15" height="5" fill="#FFF500"/>
<rect x="180" y="276" width="15" height="5" fill="#FFF500"/>
<rect x="180" y="288" width="15" height="5" fill="#FFF500"/>
<rect x="180" y="300" width="15" height="5" fill="#FFF500"/>
<rect x="180" y="312" width="15" height="5" fill="#FFF500"/>
<rect x="180" y="324" width="15" height="5" fill="#FFF500"/>
<rect x="180" y="336" width="15" height="5" fill="#FFF500"/>
<rect x="180" y="348" width="15" height="5" fill="#FFF500"/>
<rect x="210" width="15" height="5" fill="#FFF500"/>
<rect x="210" y="12" width="15" height="5" fill="#FFF500"/>
<rect x="210" y="24" width="15" height="5" fill="#FFF500"/>
<rect x="210" y="36" width="15" height="5" fill="#FFF500"/>
<rect x="210" y="48" width="15" height="5" fill="#FFF500"/>
<rect x="210" y="60" width="15" height="5" fill="#FFF500"/>
<rect x="210" y="72" width="15" height="5" fill="#FFF500"/>
<rect x="210" y="84" width="15" height="5" fill="#FFF500"/>
<rect x="210" y="96" width="15" height="5" fill="#FFF500"/>
<rect x="210" y="108" width="15" height="5" fill="#FFF500"/>
<rect x="210" y="120" width="15" height="5" fill="#FFF500"/>
<rect x="210" y="132" width="15" height="5" fill="#FFF500"/>
<rect x="210" y="144" width="15" height="5" fill="#FFF500"/>
<rect x="210" y="156" width="15" height="5" fill="#FFF500"/>
<rect x="210" y="168" width="15" height="5" fill="#FFF500"/>
<rect x="210" y="180" width="15" height="5" fill="#FFF500"/>
<rect x="210" y="192" width="15" height="5" fill="#FFF500"/>
<rect x="210" y="204" width="15" height="5" fill="#FFF500"/>
<rect x="210" y="216" width="15" height="5" fill="#FFF500"/>
<rect x="210" y="228" width="15" height="5" fill="#FFF500"/>
<rect x="210" y="240" width="15" height="5" fill="#FFF500"/>
<rect x="210" y="252" width="15" height="5" fill="#FFF500"/>
<rect x="210" y="264" width="15" height="5" fill="#FFF500"/>
<rect x="210" y="276" width="15" height="5" fill="#FFF500"/>
<rect x="210" y="288" width="15" height="5" fill="#FFF500"/>
<rect x="210" y="300" width="15" height="5" fill="#FFF500"/>
<rect x="210" y="312" width="15" height="5" fill="#FFF500"/>
<rect x="210" y="324" width="15" height="5" fill="#FFF500"/>
<rect x="210" y="336" width="15" height="5" fill="#FFF500"/>
<rect x="210" y="348" width="15" height="5" fill="#FFF500"/>
<rect x="240" width="15" height="5" fill="#FFF500"/>
<rect x="240" y="12" width="15" height="5" fill="#FFF500"/>
<rect x="240" y="24" width="15" height="5" fill="#FFF500"/>
<rect x="240" y="36" width="15" height="5" fill="#FFF500"/>
<rect x="240" y="48" width="15" height="5" fill="#FFF500"/>
<rect x="240" y="60" width="15" height="5" fill="#FFF500"/>
<rect x="240" y="72" width="15" height="5" fill="#FFF500"/>
<rect x="240" y="84" width="15" height="5" fill="#FFF500"/>
<rect x="240" y="96" width="15" height="5" fill="#FFF500"/>
<rect x="240" y="108" width="15" height="5" fill="#FFF500"/>
<rect x="240" y="120" width="15" height="5" fill="#FFF500"/>
<rect x="240" y="132" width="15" height="5" fill="#FFF500"/>
<rect x="240" y="144" width="15" height="5" fill="#FFF500"/>
<rect x="240" y="156" width="15" height="5" fill="#FFF500"/>
<rect x="240" y="168" width="15" height="5" fill="#FFF500"/>
<rect x="240" y="180" width="15" height="5" fill="#FFF500"/>
<rect x="240" y="192" width="15" height="5" fill="#FFF500"/>
<rect x="240" y="204" width="15" height="5" fill="#FFF500"/>
<rect x="240" y="216" width="15" height="5" fill="#FFF500"/>
<rect x="240" y="228" width="15" height="5" fill="#FFF500"/>
<rect x="240" y="240" width="15" height="5" fill="#FFF500"/>
<rect x="240" y="252" width="15" height="5" fill="#FFF500"/>
<rect x="240" y="264" width="15" height="5" fill="#FFF500"/>
<rect x="240" y="276" width="15" height="5" fill="#FFF500"/>
<rect x="240" y="288" width="15" height="5" fill="#FFF500"/>
<rect x="240" y="300" width="15" height="5" fill="#FFF500"/>
<rect x="240" y="312" width="15" height="5" fill="#FFF500"/>
<rect x="240" y="324" width="15" height="5" fill="#FFF500"/>
<rect x="240" y="336" width="15" height="5" fill="#FFF500"/>
<rect x="240" y="348" width="15" height="5" fill="#FFF500"/>
<rect x="270" width="15" height="5" fill="#FFF500"/>
<rect x="270" y="12" width="15" height="5" fill="#FFF500"/>
<rect x="270" y="24" width="15" height="5" fill="#FFF500"/>
<rect x="270" y="36" width="15" height="5" fill="#FFF500"/>
<rect x="270" y="48" width="15" height="5" fill="#FFF500"/>
<rect x="270" y="60" width="15" height="5" fill="#FFF500"/>
<rect x="270" y="72" width="15" height="5" fill="#FFF500"/>
<rect x="270" y="84" width="15" height="5" fill="#FFF500"/>
<rect x="270" y="96" width="15" height="5" fill="#FFF500"/>
<rect x="270" y="108" width="15" height="5" fill="#FFF500"/>
<rect x="270" y="120" width="15" height="5" fill="#FFF500"/>
<rect x="270" y="132" width="15" height="5" fill="#FFF500"/>
<rect x="270" y="144" width="15" height="5" fill="#FFF500"/>
<rect x="270" y="156" width="15" height="5" fill="#FFF500"/>
<rect x="270" y="168" width="15" height="5" fill="#FFF500"/>
<rect x="270" y="180" width="15" height="5" fill="#FFF500"/>
<rect x="270" y="192" width="15" height="5" fill="#FFF500"/>
<rect x="270" y="204" width="15" height="5" fill="#FFF500"/>
<rect x="270" y="216" width="15" height="5" fill="#FFF500"/>
<rect x="270" y="228" width="15" height="5" fill="#FFF500"/>
<rect x="270" y="240" width="15" height="5" fill="#FFF500"/>
<rect x="270" y="252" width="15" height="5" fill="#FFF500"/>
<rect x="270" y="264" width="15" height="5" fill="#FFF500"/>
<rect x="270" y="276" width="15" height="5" fill="#FFF500"/>
<rect x="270" y="288" width="15" height="5" fill="#FFF500"/>
<rect x="270" y="300" width="15" height="5" fill="#FFF500"/>
<rect x="270" y="312" width="15" height="5" fill="#FFF500"/>
<rect x="270" y="324" width="15" height="5" fill="#FFF500"/>
<rect x="270" y="336" width="15" height="5" fill="#FFF500"/>
<rect x="270" y="348" width="15" height="5" fill="#FFF500"/>
</svg>
